# xmcd CD database file
#
# Track frame offsets:
#	150
#	20684
#	43832
#	63685
#	83035
#	101606
#	124174
#	143132
#	164355
#	184853
#	205566
#	228563
#	248517
#	269126
#	287907
#	307842
#
# Disc length: 4397 seconds
#
# Revision: 0
# Processed by: cddbd v1.5.1PL0 Copyright (c) Steve Scherf et al.
# Submitted via: CDex 1.51
#
DISCID=e8112b10
DTITLE=Jose Alberto "El Canario" - Serie 32
DYEAR=2002
DGENRE=Salsa
TTITLE0=Mis Amores
TTITLE1=A La Hora Que Me Llamen Voy
TTITLE2=Hoy Quiero Confesar
TTITLE3=Que Bonito Es Puerto Rico
TTITLE4=Sarabanda
TTITLE5=Dance with Me
TTITLE6=Sueño Contigo
TTITLE7=El Temor Me Hizo Perderte
TTITLE8=Nadie Se Compara Contigo
TTITLE9=Fotos Y Recuerdos
TTITLE10=Amor De Villa
TTITLE11=Soy Salsero
TTITLE12=La Feria De Las Flores
TTITLE13=Como Quiera
TTITLE14=Cuestion De Epoca
TTITLE15=Oye La Banda
EXTD=YEAR: 2002
EXTT0=
EXTT1=
EXTT2=
EXTT3=
EXTT4=
EXTT5=
EXTT6=
EXTT7=
EXTT8=
EXTT9=
EXTT10=
EXTT11=
EXTT12=
EXTT13=
EXTT14=
EXTT15=
PLAYORDER=
